<?xml version="1.0" standalone="no"?>
<!DOCTYPE svg PUBLIC "-//W3C//DTD SVG 20010904//EN"
 "http://www.w3.org/TR/2001/REC-SVG-20010904/DTD/svg10.dtd">
<svg version="1.0" xmlns="http://www.w3.org/2000/svg"
 width="320.000000pt" height="320.000000pt" viewBox="0 0 320.000000 320.000000"
 preserveAspectRatio="xMidYMid meet">
<metadata>
Created by potrace 1.16, written by Peter Selinger 2001-2019
</metadata>
<g transform="translate(0.000000,320.000000) scale(0.100000,-0.100000)"
fill="#000000" stroke="none">
<path d="M350 3160 c0 -86 30 -845 40 -1000 9 -145 28 -1084 31 -1504 1 -82 4
-184 8 -227 4 -44 3 -86 -2 -95 -6 -10 -5 -24 3 -39 7 -13 11 -53 10 -96 -2
-41 -2 -102 -1 -136 1 -60 2 -63 26 -63 17 0 25 5 25 18 0 10 5 23 12 30 8 8
8 15 -2 27 -11 14 -11 18 0 25 10 6 11 31 7 110 -5 100 -5 102 17 97 107 -27
316 -98 366 -126 21 -11 24 -84 6 -137 l-15 -43 816 -1 815 0 -7 137 c-3 76
-10 158 -15 183 -27 132 -30 167 -19 249 5 47 12 88 14 91 3 4 12 58 21 121
11 73 25 131 41 162 30 61 88 227 101 292 13 61 29 150 43 230 14 77 5 183
-19 237 -38 86 -139 148 -220 134 -19 -3 -52 -14 -73 -26 -44 -22 -64 -26 -53
-8 4 7 3 8 -4 4 -7 -4 -21 0 -33 8 -12 8 -28 12 -35 9 -8 -3 -14 -1 -14 5 0 5
-20 15 -44 21 -48 12 -58 29 -49 87 6 35 4 37 -48 48 -14 3 -31 17 -39 33 -8
16 -22 37 -31 48 -9 11 -23 33 -31 48 l-14 29 -100 -119 c-55 -65 -125 -149
-154 -187 l-54 -68 -43 50 c-40 47 -47 51 -76 45 -17 -3 -43 -12 -57 -20 -21
-11 -27 -11 -36 2 -6 8 -14 15 -17 15 -6 0 -31 -62 -45 -113 -9 -34 -9 -37 4
-26 27 23 46 -11 47 -83 1 -67 -4 -80 -68 -197 -21 -38 -26 -56 -17 -59 18 -6
14 -22 -6 -22 -22 0 -58 -98 -42 -114 16 -16 46 8 42 34 -2 14 0 20 7 16 16
-10 14 -33 -5 -62 -13 -19 -20 -22 -30 -13 -19 16 -34 2 -34 -32 0 -16 -4 -29
-9 -29 -19 0 -21 56 -7 149 8 53 20 132 26 176 7 44 23 122 36 173 21 82 44
298 28 265 -3 -7 -11 -13 -18 -13 -6 0 -16 -13 -22 -28 -9 -24 -23 -33 -91
-55 -44 -15 -85 -27 -90 -27 -6 0 -13 108 -18 278 -4 152 -8 302 -10 332 -10
203 -25 611 -25 693 l0 97 -33 0 -32 0 2 -137 c1 -76 4 -151 7 -168 5 -29 9
-140 21 -540 3 -99 10 -229 15 -290 6 -60 10 -149 10 -196 0 -79 -2 -86 -22
-96 -38 -18 -119 -45 -122 -42 -2 2 -7 67 -10 144 -4 77 -11 205 -17 285 -5
80 -12 190 -15 245 -3 55 -8 107 -11 115 -4 8 -7 49 -8 90 -3 120 -4 128 -21
145 -17 17 -18 33 -8 134 5 45 3 65 -6 71 -8 5 -12 42 -12 124 l1 116 -39 0
-39 0 5 -47 c2 -27 11 -120 20 -208 8 -88 17 -185 18 -215 2 -30 11 -138 20
-240 28 -315 35 -411 42 -544 3 -71 10 -154 14 -184 l7 -54 -53 -39 c-29 -21
-59 -54 -67 -71 -31 -70 -47 -126 -42 -140 4 -9 -1 -40 -10 -69 -9 -30 -20
-70 -25 -89 -42 -171 -96 -300 -136 -327 -14 -9 -24 -25 -24 -39 0 -19 -46
-124 -54 -124 -1 0 -6 641 -5 678 3 75 2 120 -5 227 -4 66 -7 127 -7 135 2 50
-3 255 -8 300 -4 36 -14 370 -15 518 -2 129 -6 196 -13 200 -16 10 -28 62 -14
62 6 0 11 7 11 16 0 8 -4 12 -10 9 -14 -8 -13 18 1 32 8 8 9 42 4 112 l-7 101
-29 0 c-27 0 -29 -3 -29 -40z m1221 -1741 c33 -17 14 -93 -25 -103 -19 -5 -24
-14 -30 -58 -8 -68 -8 -172 0 -192 3 -9 17 -16 30 -16 18 0 25 7 30 28 4 15 9
32 13 37 3 6 6 16 7 23 5 28 14 42 29 42 19 0 20 -36 0 -44 -8 -3 -15 -14 -15
-25 0 -11 -7 -36 -15 -56 -8 -19 -22 -51 -30 -70 -18 -44 -51 -48 -66 -8 -12
31 -15 268 -4 302 3 12 2 27 -3 34 -22 29 -20 57 8 87 30 33 41 36 71 19z"/>
<path d="M1505 3188 c-11 -7 -45 -13 -75 -13 -67 -1 -102 -24 -158 -104 -70
-100 -75 -116 -80 -242 -5 -126 3 -168 44 -231 13 -21 24 -44 24 -53 0 -8 6
-15 14 -15 10 0 15 32 20 138 l7 137 37 44 c40 46 97 73 141 65 14 -2 42 1 62
8 31 12 78 14 159 9 14 0 43 -17 65 -36 22 -19 48 -35 58 -35 10 0 21 -8 24
-17 4 -10 11 -21 17 -25 6 -4 11 -11 12 -15 0 -4 4 -17 8 -28 52 -140 65 -180
76 -242 11 -59 11 -75 0 -88 -7 -8 -10 -24 -7 -34 3 -11 -1 -28 -8 -38 -8 -11
-10 -24 -5 -34 8 -13 5 -15 -15 -11 -14 2 -25 8 -25 14 0 5 -9 4 -20 -2 -11
-6 -19 -14 -19 -18 9 -57 -148 -193 -231 -199 -14 -1 -37 -5 -52 -8 -21 -6
-38 0 -73 24 -25 17 -52 31 -60 31 -8 0 -17 5 -20 10 -3 6 -15 10 -26 10 -10
0 -19 7 -19 15 0 9 -11 20 -24 25 -13 5 -26 20 -30 36 -4 15 -14 37 -23 48
l-15 21 7 -22 c3 -12 12 -50 20 -85 7 -35 14 -56 14 -48 2 26 69 -62 87 -113
11 -35 13 -51 5 -61 -8 -10 -1 -23 31 -55 59 -58 75 -60 150 -15 35 20 97 55
138 76 106 55 165 97 185 131 17 29 45 143 45 184 0 14 6 23 16 23 12 0 14 5
8 18 -12 29 -7 63 14 82 25 23 35 75 23 117 -7 25 -6 41 6 65 12 23 18 72 21
179 l5 147 -36 64 c-39 70 -77 111 -84 91 -7 -21 -22 -15 -18 7 6 29 -40 38
-78 17 -35 -21 -47 -21 -47 -3 0 8 -11 26 -24 40 -22 25 -28 26 -137 26 -70 0
-122 -5 -134 -12z"/>
<path d="M1755 2709 c-22 -5 -50 -11 -62 -14 -13 -3 -23 -11 -23 -19 0 -7 -8
-20 -18 -30 -25 -22 -24 -79 0 -84 10 -2 31 6 47 17 18 13 32 17 36 11 3 -5
25 -10 48 -11 23 0 36 -3 30 -6 -30 -12 -9 -19 27 -10 43 12 50 26 24 48 -11
9 -42 12 -100 11 -46 -1 -84 0 -84 3 0 13 60 29 125 34 l70 6 -27 28 c-29 29
-32 30 -93 16z"/>
<path d="M1683 2486 c17 -24 7 -38 -23 -31 -25 5 -36 2 -56 -18 -20 -20 -22
-26 -9 -31 24 -9 17 -26 -11 -26 -14 0 -23 -4 -20 -8 3 -5 20 -7 37 -4 27 4
31 2 26 -12 -4 -10 -7 -20 -7 -22 0 -2 -11 -4 -25 -4 -14 0 -25 -5 -25 -10 0
-6 21 -10 48 -9 26 1 52 0 57 -1 6 -1 29 -2 53 -1 37 1 42 4 42 24 0 18 -30
50 -50 52 -3 0 -11 4 -17 8 -20 13 -15 30 7 24 28 -7 25 13 -7 49 -16 16 -25
25 -20 20z"/>
<path d="M165 1350 c-7 -12 4 -405 12 -434 5 -19 6 -44 19 -486 4 -140 8 -284
9 -320 4 -120 -3 -110 64 -110 54 0 59 2 54 20 -3 11 -10 20 -15 20 -6 0 -8 9
-5 19 3 12 -1 22 -11 26 -12 4 -13 8 -4 17 17 17 15 28 -5 28 -12 1 -7 6 12
15 17 7 23 14 14 14 -12 1 -15 9 -12 34 6 58 3 78 -17 106 -19 28 -19 28 0 49
28 30 27 55 -2 47 -23 -7 -23 -7 -3 9 19 15 19 17 2 30 -16 12 -16 14 -2 20 9
3 14 10 10 15 -3 5 -1 12 5 16 18 11 11 28 -9 22 -12 -3 -22 1 -25 10 -9 21
-8 23 10 23 9 0 14 8 13 18 -1 9 0 19 1 22 8 22 8 50 0 55 -6 4 -8 11 -5 16 4
5 1 9 -4 9 -15 0 -14 40 2 40 7 1 5 6 -5 14 -10 7 -18 24 -18 37 0 19 -2 21
-10 9 -6 -9 -10 -10 -10 -3 0 6 7 18 15 27 11 11 14 26 9 55 -4 22 -10 38 -15
35 -5 -3 -9 2 -9 11 0 9 4 14 9 10 6 -3 6 5 1 22 -4 16 -9 33 -10 38 -2 6 0
18 5 28 4 9 3 23 -3 30 -13 15 -4 60 9 51 5 -3 6 2 3 10 -3 9 -11 16 -16 16
-5 0 -7 13 -3 29 4 18 1 40 -8 57 -11 22 -12 33 -1 63 11 30 10 38 -2 47 -8 6
-12 19 -8 28 3 9 1 16 -5 16 -6 0 -11 7 -11 15 0 17 -16 20 -25 5z"/>
<path d="M0 387 l0 -387 24 0 25 0 -4 143 c-5 151 -8 209 -26 462 -6 88 -13
162 -15 164 -2 2 -4 -170 -4 -382z"/>
</g>
</svg>
